/* XPM */
static char *_fb0a03e9a6942eedcd5ff925b68495ewtRlphK7s9Trhayj[] = {
/* columns rows colors chars-per-pixel */
"60 60 213 2 ",
"   c #000000",
".  c #0B0A0A",
"X  c #100F0F",
"o  c #11100F",
"O  c #141312",
"+  c #181716",
"@  c #1E1D1C",
"#  c #201F1E",
"$  c #21201E",
"%  c #252422",
"&  c #282725",
"*  c #2B2927",
"=  c #2D2C2A",
"-  c #302F2C",
";  c #34322F",
":  c #383632",
">  c #3B3936",
",  c #3F3C39",
"<  c #4E0F06",
"1  c #520E05",
"2  c #5C0F07",
"3  c #510F09",
"4  c #4F1209",
"5  c #531007",
"6  c #5B1107",
"7  c #63140A",
"8  c #69160B",
"9  c #69170C",
"0  c #76190C",
"q  c #7B1B0D",
"w  c #7E1C12",
"e  c #413F3A",
"r  c #683D30",
"t  c #45423C",
"y  c #4C4944",
"u  c #524E48",
"i  c #54514B",
"p  c #58554E",
"a  c #625D55",
"s  c #68635A",
"d  c #70695E",
"f  c #6D6960",
"g  c #736D64",
"h  c #777268",
"j  c #7C766C",
"k  c #797771",
"l  c #891D0F",
"z  c #801B11",
"x  c #8A1E11",
"c  c #8C200F",
"v  c #8C2212",
"b  c #8C2D1B",
"n  c #932315",
"m  c #9A2415",
"M  c #962518",
"N  c #9D2619",
"B  c #9C2919",
"V  c #9B301F",
"C  c #A22616",
"Z  c #A42917",
"A  c #AB2917",
"S  c #A22719",
"D  c #A22919",
"F  c #AC2C1B",
"G  c #B42E1C",
"H  c #BB2E1D",
"J  c #A8311A",
"K  c #B4311D",
"L  c #BD321E",
"P  c #BB3D1C",
"I  c #883324",
"U  c #973826",
"Y  c #AE2D20",
"T  c #B72F20",
"R  c #A83926",
"E  c #B63322",
"W  c #BB3321",
"Q  c #BE3A22",
"!  c #BD3B2B",
"~  c #C1341E",
"^  c #CA341F",
"/  c #C43521",
"(  c #CB3622",
")  c #C73924",
"_  c #CC3A24",
"`  c #C33E2D",
"'  c #CC3D2A",
"]  c #D43B25",
"[  c #D43D25",
"{  c #D83E26",
"}  c #D53E28",
"|  c #AC471D",
" . c #BC451F",
".. c #99412C",
"X. c #8D552B",
"o. c #9A4736",
"O. c #B74727",
"+. c #A64937",
"@. c #B74D37",
"#. c #AF563E",
"$. c #AA7236",
"%. c #CE4526",
"&. c #CE422D",
"*. c #D54026",
"=. c #D94127",
"-. c #D4422B",
";. c #DA4129",
":. c #D44631",
">. c #D64933",
",. c #D94936",
"<. c #C15734",
"1. c #CF6D36",
"2. c #C67535",
"3. c #CE7035",
"4. c #835A4B",
"5. c #9A5240",
"6. c #A65845",
"7. c #B85A46",
"8. c #86604E",
"9. c #896552",
"0. c #8C6956",
"q. c #936D5B",
"w. c #9D6F5C",
"e. c #96705E",
"r. c #AD634E",
"t. c #B9634F",
"y. c #A96B59",
"u. c #B76B56",
"i. c #B8745E",
"p. c #887A6B",
"a. c #997662",
"s. c #9A7966",
"d. c #827D72",
"f. c #AB7664",
"g. c #B67966",
"h. c #BB7E6A",
"j. c #CA7B46",
"k. c #C07E67",
"l. c #8A8378",
"z. c #8C867B",
"x. c #93897D",
"c. c #A9876F",
"v. c #BB816C",
"b. c #B98974",
"n. c #A7947A",
"m. c #BB927C",
"M. c #EB8C45",
"N. c #EA964F",
"B. c #EFAB52",
"V. c #C1866E",
"C. c #C38A76",
"Z. c #C7927C",
"A. c #FBCE69",
"S. c #8E8981",
"D. c #938B81",
"F. c #9E968A",
"G. c #A89B8C",
"H. c #B89C85",
"J. c #A59F95",
"K. c #B9A38A",
"L. c #BBA58B",
"P. c #AAA195",
"I. c #B7AA98",
"U. c #BEB39F",
"Y. c #BEB4A4",
"T. c #CA9683",
"R. c #C49A85",
"E. c #C89885",
"W. c #C5A38C",
"Q. c #C6AB97",
"!. c #CBAB95",
"~. c #D1AF9F",
"^. c #C9B399",
"/. c #CBB39A",
"(. c #C2B5A5",
"). c #CDBBA3",
"_. c #C7B9A9",
"`. c #D4B6A3",
"'. c #D1BCA3",
"]. c #D4BCAB",
"[. c #CBBFB1",
"{. c #CEC1AD",
"}. c #D5C3AB",
"|. c #D7C3AB",
" X c #CFC2B1",
".X c #D3C5B3",
"XX c #DAC6B2",
"oX c #D5C8B4",
"OX c #DCCCB5",
"+X c #D6C9B9",
"@X c #DCCDBB",
"#X c #DED0B7",
"$X c #DED1BB",
"%X c #E1CCB6",
"&X c #E1CEBB",
"*X c #E3D5BB",
"=X c #E2D3BC",
"-X c #D5D0C1",
";X c #DDD2C1",
":X c #E4D5C2",
">X c #E5D9C4",
",X c #E9DAC6",
"<X c #E7D6CA",
"1X c #E6DBC9",
"2X c #EADDCB",
"3X c #EBDDD0",
"4X c #EDE1CE",
"5X c #EEE1CE",
"6X c #EEE2D2",
"7X c #EFE7D9",
"8X c #F0E5D5",
"9X c #F2E6D9",
"0X c #F1E8D8",
/* pixels */
"                                                                                                                        ",
"  . S.D.d.j h g f d a a p p i u y e > > , > : * & & * = = = % % % & * & & @ @ @ % $ # @ O + O . & .                     ",
"  .  X=X$X=X=X=X=X=X=X=X=X=X=X=X=X=X$X$X=X$X;X;X;X$X$X$X$X$X$X$XOX$X$X@X@XOXOX@X@X@XOXOXoXoX X(..Xz.-                   ",
"  . p.I.$X=X=X=X=X=X$X*XOX=X}.}.=X=X=X=X=X=X=X=X=X=X=X=X=X=X=X=X=X=X=X=X=X=X=X=X=X=X=X=X=X=X=X=X,X-X&                   ",
"    D.=X=X=X=X=X=X=X=X}.{.$X{.).$X=X$X$X$X$X=X=X=X$X$X$X$X$X$X$X$X$X$X$X$X=X=X=X=X=X$X$X$X$X$X=X:X;XO                   ",
"    i $X=X=X=X=X*X*X*Xn.:X2X,X,X,X2X2X4X4X2X4X4X6X6X4X4X4X4X2X2X2X2X2X2X2X1X1X,X,X>X>X:X*X*X=X*X.Xl.                    ",
"    . a I./././.L.'.K.s.q.s.s.s.s.s.s.a.a.a.a.a.e.e.q.q.q.q.0.0.0.9.9.9.9.8.4.4.0.L.'.H./.Q.x.s $                       ",
"        O t G./.c.'.H.4 1 1 1 3 3 3 3 1 5 6 7 7 7 9 9 9 9 9 7 6 6 5 5 5 1 < < < r /.}.L.'.d                             ",
"            s OX}.}.!.I w w q q q q z v M M M n n v v l x x l z 0 8 7 7 2 1 1 1 4.'.%XOXOXp                             ",
"            i =X$X$X/.U x x M N S S K L L L L L L L L L W K K G K F N n n v q 0 w.}.=X=X#Xt                             ",
"            e =X=X=X}.o.l M n n m F K E E E E E E E E E E E K E E T Y m m C m x f.XX$X=X$X-                             ",
"            & @X$X=XXX5.c N m m F G G G E E E E E W W W W W W T L G G F m S N x c.OX=X=X@X#                             ",
"            O +X=X=X&X6.v S m D G L L L W L L L L L L L L L L L W L G E Z S N v b.$X}.OXoXO                             ",
"            . [.>X=X:Xy.v S m E L L L L L L L L L L L L L L L L L L K W F A S v m.:XK.)._..                             ",
"              P.:X:X1Xf.v S C ! L L L L L L L ~ ~ ~ ~ ~ ~ L L L L L L W G A Z v H.:XL.].I.                              ",
"              S.:X:X1Xb.v S F ! L L L L L ~ ~ ~ ~ ~ ~ ~ ~ ~ ~ L ~ L L ! T G S b K.,X/.@XF.                              ",
"              h :X=X1XR.v C K ! K L / ~ ~ ~ ~ ~ ~ ~ L ~ ~ ~ ~ ~ ~ ~ L ! W L Z b W.,X=X=Xl.                              ",
"              i :X:X1XW.v C W ! E ~ ~ ~ ~ ~ ~ ~ / Q <.L L ~ ~ ~ ~ ~ L ! L L F I Q.1X=X=Xh                               ",
"              : :X:X>X~.b A W ! W ~ ~ ~ ~ ~ ~ ~ ~ O.#.Q ~ ~ ~ ~ ~ ~ L ! W ~ F U /.1X=X:Xa                               ",
"              $ $X=X>X].b F W ! W L ~ ~ ~ ~ ~ / ~ L K / ~ ~ ~ ~ ~ ~ L ! W L F ..`.1X=X:Xt                               ",
"              o +X=XOXH.U G ~ W ! L ~ ~ / / / / / / ~ ~ / / / / ~ ~ L ! W ~ G o.).:X:X;X-                               ",
"              . (.&X(.]...G ~ W ! / / / / ~ ( ( _ _ _ _ _ _ ( / / / L ! ~ ~ K o.].:X:X@X@                               ",
"                P.=X:X:X+.K ~ W ` ~ ~ ~ _ [ [ { [ *.[ [ [ { { [ ] _ L ! / ~ K 6..X:X=X+Xo                               ",
"                x.:X:X<X6.G ~ L ` ~ _ [ [ [ [ [ [ [ [ [ [ [ [ [ [ *._ &.) / G 6.oX:X:X[..                               ",
"                g :X:X3Xr.K ~ L ` _ [ { { [ [ [ =.=.[ [ { { [ { [ [ _ &.[ _ K r.@X:X:XY.                                ",
"                i :X:X3Xy.F ~ ~ &._ [ { [ { { =.=.=.=.=.=.{ { { [ [ _ ' [ _ L i.@X:X:XP.                                ",
"                > :X:X4Xg.F _ [ ' _ [ [ [ { { [ [ [ [ [ [ [ [ [ [ _ _ _ [ _ L i.:X:X:Xx.                                ",
"                $ $X:X6Xb.K _ [ _ _ ' -.-.:.>.>.,.,.,.,.,.,.:.-.-.&._ _ { _ Q k.:X:X:Xj                                 ",
"                X oX:X6XR.E ] { _ [ [ [ [ [ *.*.-.-.-.-.-.-.{ { { { { { *._ Q V.1X:X:Xs                                 ",
"                . (.:X4X!.E _ { [ [ [ *.*.=.=.=.=.=.=.=.=.=.=.=.-.[ [ %.M.N. .C.1X:X:Xi                                 ",
"                  P.:X2X`.R _ [ [ _ _ _ &.&.-.:.:.:.:.:.:.:.-.-._ _ _ O.A.A.3.Z.2X:X:X,                                 ",
"                  z.:X2XXXR _ [ [ -.' [ *.-.-.-.-.-.-.=.-.-.-.{ [ } ' | B.B.1.Z.6X:X=X&                                 ",
"                  f XX=X%X+.) [ { >.&.{ *.=.=.=.=.;.;.;.=.=.=.=.*.-.&.| 2.3.O.R.6X:X@X+                                 ",
"                  y )..X&X@./ [ *.&.-.{ -.=.=.=.=.=.;.;.=.=.=.{ { :.` <.X.j.O.W.6X:X.X.                                 ",
"                  = XX}.:X7.W [ *.' -.[ -.-.-.-.=.;.;.;.-.-.-.{ } &.Q 2.$.N.O.W.6X>X_..                                 ",
"                  + OX@X2Xt.W [ [ _ _ _ ' -.-.-.-.:.:.:.:.:.-.-._ _ Q 2.B.M.O.!.6X:XI.                                  ",
"                  . [.:X4Xu.W [ [ [ [ [ *.[ [ [ *.-.-.-.[ *.*.[ *.[ ) J P P @.!.4X:XG.                                  ",
"                    I.:X6Xi.K [ [ } { { { { { { { { { { { { [ { { [ { { _ ~ @./.2X:Xl.                                  ",
"                    z.:X8Xh.K ] [ / ' ' -.-.-.:.:.,.,.,.:.:.-.&.' ' ( ] ] W @.`.1X:Xh                                   ",
"                    h :X6XC.F ] [ ' _ _ _ _ _ _ [ _ _ _ _ [ _ _ _ _ _ [ _ L 7.`.;X:Xa                                   ",
"                    s :X4XE.J _ [ ' _ _ [ [ [ [ [ [ [ [ [ [ [ [ [ _ ' [ _ ~ 7.H.(.:Xy                                   ",
"                    u :X2X!.J _ [ _ &.[ [ [ [ [ [ [ [ [ [ [ [ [ [ _ ' [ _ ~ t.OX1X:X>                                   ",
"                    , :X1X`.R ~ [ ) :.[ [ [ [ [ [ [ [ [ [ [ [ [ [ _ ' [ _ ~ t.XX:X=X=                                   ",
"                    & =X:X}.R L [ _ :.[ [ [ [ [ [ [ [ [ [ [ [ [ ] _ ' [ _ L u.XX:X@X@                                   ",
"                    O @X:XXX+.H ] _ :._ [ [ [ [ [ [ [ [ [ [ [ [ ] _ ' [ _ W i.OX=XOXX                                   ",
"                    . .X:X&X+.G ] _ &._ [ [ [ [ [ [ [ [ [ [ [ [ ] _ ' ] _ E i.@X=X{..                                   ",
"                    . Y.:X=X6.G ( ] &.( [ [ [ [ [ [ [ [ [ [ [ [ ] ) ' ] _ G g.@X:XY..                                   ",
"                      J.:X:Xr.G ~ _ &.( [ [ [ [ [ [ [ [ [ [ [ [ ] _ ' ] _ Z v.=X:XI.                                    ",
"                      x.:X:Xu.F H _ ' ( [ ] ] ] ] ] ] ] ] ] ] ] [ ) ) [ / Z b.=X=XF.                                    ",
"                      j =X1Xg.F L ~ ) ) ( [ [ [ ] ] ] ] ] ] [ [ _ ) ( _ G N b.:X=Xz.                                    ",
"                      s =X1Xh.Z L H / _ ( ( _ ( ( ( ( ( ( ( ( ( ^ ) / ~ G B m.:X=Xj                                     ",
"                      t =X:Xm.S H H G / ) ' ' ' ' ' &.&.' ' ' ' ) / / H A B m.:X=Xd                                     ",
"                      = &X=XR.N G H G G / / / / / / / / / / / / / / H H C V H.*X=Xi                                     ",
"                      @ OX=XW.B F H H H H ^ ( ( _ _ ] _ _ [ ( _ ( H H F C U H.=X$Xt                                     ",
"                      O .X=X!.V C F T G G H H / / _ _ _ _ ( ( ~ H G A C C U K.OX@X:                                     ",
"                      . Y.}./.U N N S S S S C C Z F F G F F Z N N N N B N ..W.}.}.;                                     ",
"                      $ U.n./.g.g.g.h.h.v.V.V.C.C.C.Z.Z.T.T.T.T.E.E.E.T.T.R.Q.K.I.P.k =                                 ",
"                  . k -X2X:X2X2X6X6X6X8X8X8X0X7X8X8X0X0X9X0X0X0X0X0X0X0X9X7X8X6X8X6X6XJ.                                ",
"                  , ;X=X:X:X1X>X1X1X2X2X2X2X2X2X2X2X2X2X2X1X1X1X1X1X1X:X:X=X=X=X=X=X$Xd.                                ",
"                  @ (.$X=X=X=X=X=X=X=X=X=X=X=X=X=X=X=X$X$X=X=X=X=X=X=X=X=X=X=X=X=XOXj O                                 "
};
