/* XPM */
static char *_c11b3d8e7f24edf8020f45bc6e2c572rOMiU0mkCvaAih0c[] = {
/* columns rows colors chars-per-pixel */
"60 60 147 2 ",
"   c #000000",
".  c #0B0B09",
"X  c #13130D",
"o  c #1F180C",
"O  c #151612",
"+  c #1C1B15",
"@  c #252215",
"#  c #24251A",
"$  c #2C2B1B",
"%  c #322F19",
"&  c #38321B",
"*  c #3F3B19",
"=  c #2B2C24",
"-  c #312F21",
";  c #3B3B27",
":  c #3A3929",
">  c #413B1C",
",  c #493C1A",
"<  c #4D411F",
"1  c #5E4C1A",
"2  c #65521B",
"3  c #524D27",
"4  c #584F25",
"5  c #444534",
"6  c #4E4A32",
"7  c #5F5B37",
"8  c #55543D",
"9  c #665527",
"0  c #6D5D23",
"q  c #625B2D",
"w  c #725F24",
"e  c #7C6520",
"r  c #766B2D",
"t  c #7E6D2B",
"y  c #65623F",
"u  c #6A6543",
"i  c #6E6D44",
"p  c #716C44",
"a  c #7F7A49",
"s  c #AD6F15",
"d  c #A97217",
"f  c #826722",
"g  c #8B792A",
"h  c #917322",
"j  c #9A7C20",
"k  c #817743",
"l  c #847A46",
"z  c #B2891E",
"x  c #95822A",
"c  c #9B862C",
"v  c #9C882C",
"b  c #A38224",
"n  c #A0842D",
"m  c #AA8B2D",
"M  c #A29135",
"N  c #AA9736",
"B  c #DF9609",
"V  c #DF980D",
"C  c #D79513",
"Z  c #D09A1C",
"A  c #E38603",
"S  c #E28A04",
"D  c #E49107",
"F  c #E19609",
"G  c #E29B0C",
"H  c #E49F10",
"J  c #E89E10",
"K  c #DFA40D",
"L  c #DDA514",
"P  c #D9A31C",
"I  c #E1A40D",
"U  c #E4A512",
"Y  c #E8A614",
"T  c #E4AB15",
"R  c #E5AE19",
"E  c #E9AF1B",
"W  c #E6B21C",
"Q  c #E8B51E",
"!  c #EABA1E",
"~  c #C09220",
"^  c #C39922",
"/  c #CD9F24",
"(  c #CDA62A",
")  c #D2A123",
"_  c #DFAC20",
"`  c #DFBC2E",
"'  c #CFAB30",
"]  c #D8B732",
"[  c #DEBC31",
"{  c #E6B521",
"}  c #EAB621",
"|  c #E7B824",
" . c #EBBC21",
".. c #E2BC2E",
"X. c #EABD29",
"o. c #E0BC31",
"O. c #EEC11F",
"+. c #F1C61F",
"@. c #EEC221",
"#. c #EFC826",
"$. c #ECC32B",
"%. c #EFC92C",
"&. c #F1C422",
"*. c #F0C823",
"=. c #F1C32B",
"-. c #F1C92C",
";. c #EDC331",
":. c #EFC933",
">. c #F3CE34",
",. c #F3CC3A",
"<. c #F5D13B",
"1. c #8B824C",
"2. c #91894E",
"3. c #988D50",
"4. c #A19957",
"5. c #ADA35E",
"6. c #B3A554",
"7. c #B0A25A",
"8. c #CABC64",
"9. c #F3CF41",
"0. c #F5D444",
"q. c #F8D545",
"w. c #F7D74A",
"e. c #F9D74C",
"r. c #F7D84A",
"t. c #F9DA4F",
"y. c #FBDB53",
"u. c #F6DC5E",
"i. c #FADD5A",
"p. c #FDDF5B",
"a. c #FEDF5A",
"s. c #FCDF5D",
"d. c #FDDE5F",
"f. c #FCE05D",
"g. c #CEC065",
"h. c #D3C065",
"j. c #D9C667",
"k. c #DCC665",
"l. c #EBD563",
"z. c #EAD468",
"x. c #F6DC65",
"c. c #FADF61",
"v. c #FDDE60",
"b. c #FBDE64",
"n. c #F0D76B",
"m. c #F3DC68",
"M. c #F1DB70",
/* pixels */
"                                                                                                                        ",
"                                                                                                                        ",
"                                                                                                                        ",
"                                                                                                                        ",
"                                                                                                                        ",
"                                                                                                                        ",
"                                                                                                                        ",
"                                                                                                                        ",
"                                                                                                                        ",
"                                                                                                                        ",
"                                                                                                                        ",
"                                                                                                                        ",
"                                                                                                                        ",
"                                                        . # : 8 y k l 1.3.5                                             ",
"                                              + 6 l 7.k.M.b.v.d.d.d.d.d.d.z.#                                           ",
"                                        : 1.h.m.d.d.d.d.d.d.d.d.d.d.d.d.d.d.g..                                         ",
"                                  O p j.c.d.d.p.d.d.p.p.d.d.d.d.d.d.d.d.d.d.d.4.                                        ",
"                              + 1.n.p.d.d.d.d.d.d.d.d.d.y.r.e.y.p.d.d.d.d.d.d.d.i                                       ",
"                          O 1.m.d.d.d.d.d.d.d.d.d.p.d.,.&.-.,.0.t.y.d.d.d.d.p.d.6.                                      ",
"                      . u z.d.d.d.d.d.d.d.d.d.d.d.d.d.,.! &.-.<.0.y.d.d.d.d.d.d.l.=                                     ",
"                    $ 8.d.p.p.d.d.d.d.d.d.d.d.d.d.d.d.d.r.,.>.<.r.y.p.d.d.d.d.p.d.x.5..                                 ",
"                    c -.,.0.e.p.y.,.>.<.y.d.d.d.d.p.d.d.d.d.f.d.d.p.p.d.d.d.d.d.d.d.d.2.                                ",
"                    v &.&.+.@.&.&.@.&.#.0.i.d.d.d.d.d.d.d.d.f.d.d.d.d.d.d.d.d.d.d.d.d.c.7                               ",
"                    v @.} ! !  .&.&.+.-.0.e.>.<.q.e.p.d.d.d.d.d.d.d.d.d.d.d.d.d.d.d.d.d.x.-                             ",
"                    v @.! Q W Q @.,.0.>.0.,.O.O.+.&.&.-.>.q.y.p.d.d.d.d.d.d.d.d.d.d.d.d.p.j.O                           ",
"                    c  .Q W W W { $.%.,.:. .Q Q Q ! ! ! @.@.@.#.-.>.0.e.y.p.p.i.e.y.d.d.d.d.5.                          ",
"                    c  .Q W W W W W } } { { W W W W W Q Q Q Q !  . .@.O.&.-.<.0.w.%.r.d.d.f.d.a                         ",
"                    c  .Q W W W W W W W Q W W W W W W W W } } Q Q Q Q Q ! ! ! =.9.-.<.,.<.q.e.u.;                       ",
"                    c @.Q W W W W W W W W W W W W W W W W B F Q W W W W Q W Q Q Q ! !  .@.&.&.*.N                       ",
"                    c @.Q W W W W W W W W W W W W W W W Q T F R W W W W W Q W W W W Q Q !  .&.+.[                       ",
"                    c O.Q Q W W Q } { W W W W W W W W W W  .} W W W Q R U R  .Q Q W W Q Q ! ! &.[                       ",
"                    x @.Q W W G S S G } W W W W W W W W W W W W W E S A A S S E Q W W W Q Q  .&.`                       ",
"                    x @.Q W Q G F S S G Q W W W W W W W W W W W W T D S S A A S W W W W W Q  .&.`                       ",
"                    g O.! W Q Q R U F F Q W W W W W W W W W W W Q W F F F F S S G W W W W Q } &...                      ",
"                    r O.! Q W X.;.T T Q Q W R W W W W W W W W W Q X.K T U G F F H W W W W Q } &.`                       ",
"                    q @.! W W W X.$.X.Q W R W R R U Y W W W W W Q X.X.,.;.I I K E W W W Q Q ! &.o.                      ",
"                    q @.! Q W W W W W W R R R W G S A F W W W W W { $.$.R L U W Q W W W W Q ! &...                      ",
"                    3 @.! Q W W W W R R R T T W G F S A G W R R W W Q X.;.;.X.} W W W W W Q  .&...                      ",
"                    > @.! Q W R W R T T T T T Q I I F S A U R R R W W Q { { W Q W W W W Q Q ! &...                      ",
"                    * @.} Q W W R T T T T T T W W I T F D G T T T R R R W W W R R W W W W Q ! &.[                       ",
"                    # $.! Q W W R T T U U U U T } Q W I G U T T T T T T T T R R W W W W Q Q  .&...                      ",
"                    . 4 t m ( R R T V s d C I I T W W T U U U U T T T T T T R W W W W W Q ! ! &.`                       ",
"                              + , w 0     o Z I I I K I I I I I U U U U T T T R R W R J U Q ! &.[                       ",
"                                            9 j ^ L I I I I I I I I I U U U T T R W U F S Y ! &.[                       ",
"                                                  X & 2 h ~ P K I I I I I U T T T W | W U Q ! &.[                       ",
"                                                            . $ 1 f z ) L U T T T R { $. .! ! &.[                       ",
"                                                                        @ < e b / _ W W Q !  .&.]                       ",
"                                                                                  + > w n ' X.#.M                       ",
"                                                                                            X % .                       ",
"                                                                                                                        ",
"                                                                                                                        ",
"                                                                                                                        ",
"                                                                                                                        ",
"                                                                                                                        ",
"                                                                                                                        ",
"                                                                                                                        ",
"                                                                                                                        ",
"                                                                                                                        ",
"                                                                                                                        ",
"                                                                                                                        "
};
