/* XPM */
static char *_5fe9e425aed4ca1f0822f5591482713x14JQW1y8Mo3wfbS[] = {
/* columns rows colors chars-per-pixel */
"60 60 178 2 ",
"   c #000000",
".  c #03060A",
"X  c #05090D",
"o  c #090C0E",
"O  c #060911",
"+  c #0A0E13",
"@  c #0D1115",
"#  c #0E141B",
"$  c #161012",
"%  c #12161B",
"&  c #15191E",
"*  c #1B1818",
"=  c #201B1B",
"-  c #0E1722",
";  c #161C22",
":  c #191D23",
">  c #1B2024",
",  c #152028",
"<  c #1D232C",
"1  c #1E2730",
"2  c #1E2B34",
"3  c #202226",
"4  c #22262C",
"5  c #23292D",
"6  c #252B33",
"7  c #292D33",
"8  c #272F38",
"9  c #2C3236",
"0  c #273039",
"q  c #2C333A",
"w  c #34343A",
"e  c #33393E",
"r  c #343B42",
"t  c #393F45",
"y  c #3A4144",
"u  c #3C444B",
"i  c #3E4651",
"p  c #3F4950",
"a  c #42464C",
"s  c #444A4E",
"d  c #424752",
"f  c #434A53",
"g  c #494E54",
"h  c #4E5256",
"j  c #45515A",
"k  c #4C545B",
"l  c #4F595F",
"z  c #52545A",
"x  c #575659",
"c  c #535A5F",
"v  c #664E4C",
"b  c #6D5754",
"n  c #635559",
"m  c #655B5B",
"M  c #715853",
"N  c #616452",
"B  c #6F6F54",
"V  c #4F5962",
"C  c #505660",
"Z  c #545C63",
"A  c #595E64",
"S  c #575F68",
"D  c #576267",
"F  c #596066",
"G  c #56616A",
"H  c #5C646C",
"J  c #5F6771",
"K  c #5F6871",
"L  c #616266",
"P  c #64666B",
"I  c #646B6E",
"U  c #6D6B6E",
"Y  c #746164",
"T  c #636B73",
"R  c #696F73",
"E  c #646E79",
"W  c #766F75",
"Q  c #667076",
"!  c #6C7275",
"~  c #67727B",
"^  c #6B737B",
"/  c #6E797D",
"(  c #7A7273",
")  c #73767A",
"_  c #73797D",
"`  c #96736C",
"'  c #8C7672",
"]  c #9C7976",
"[  c #7F8159",
"{  c #9C9B79",
"}  c #A9817C",
"|  c #ADA975",
" . c #6E7780",
".. c #6E7881",
"X. c #747C83",
"o. c #7A7E82",
"O. c #767E88",
"+. c #7D8285",
"@. c #768189",
"#. c #7C848C",
"$. c #7F888E",
"%. c #7D8690",
"&. c #7F8A91",
"*. c #838486",
"=. c #81868A",
"-. c #858B8E",
";. c #898D8E",
":. c #9B8C8D",
">. c #838C94",
",. c #8A8E93",
"<. c #868F99",
"1. c #898F9A",
"2. c #879097",
"3. c #8B9195",
"4. c #879099",
"5. c #8A929B",
"6. c #949696",
"7. c #959897",
"8. c #93969A",
"9. c #969A9D",
"0. c #9B9D9F",
"q. c #B58680",
"w. c #BB8B82",
"e. c #BF928B",
"r. c #8D96A0",
"t. c #919AA4",
"y. c #9399A7",
"u. c #9B9EA1",
"i. c #9CA1A4",
"p. c #A3A5A7",
"a. c #A3A6AA",
"s. c #A4A8AB",
"d. c #AAADAF",
"f. c #A9AEB3",
"g. c #ADB1B3",
"h. c #B2B4B5",
"j. c #B5B8B7",
"k. c #B2B6B9",
"l. c #B5B9BC",
"z. c #B9BBBC",
"x. c #D29F96",
"c. c #DD9F92",
"v. c #DDAA9F",
"b. c #E5A89D",
"n. c #E9AD9F",
"m. c #F3AE9D",
"M. c #F7B19D",
"N. c #F9B09E",
"B. c #F6B1A1",
"V. c #F8B1A1",
"C. c #F2B1A8",
"Z. c #EFE79B",
"A. c #FAEC96",
"S. c #BABDC1",
"D. c #BEC2C6",
"F. c #C2C6C6",
"G. c #C5C6CA",
"H. c #C6C9CC",
"J. c #CACCCC",
"K. c #CACDD0",
"L. c #CCD2D2",
"P. c #D3D4D4",
"I. c #D5D7D9",
"U. c #D6DADA",
"Y. c #D9DBDB",
"T. c #DFE2E2",
"R. c #E3E5E5",
"E. c #E8EAE7",
"W. c #E5E7E8",
"Q. c #E6E9E9",
"!. c #EBECEC",
"~. c #EEF2F2",
"^. c #F3F4F4",
"/. c #F5F7F7",
"(. c #F7F8F6",
"). c #F9FAF6",
"_. c #F7F9F9",
"`. c #FDFEFD",
/* pixels */
"                                                                                                                        ",
"                                                                                                                        ",
"                                                                                                                        ",
"                                        3 9                                                                             ",
"                            .   X ; t T 5.&                                                                             ",
"                    O + % X @ d T t.t.t.7   . . .                                                                       ",
"                        . 9 k K k ^ 5.G . 6 k H H k t 7 5 @                                                             ",
"                    O + < u C H T T X.g O.5.4.O.I L W :.:.3                                                             ",
"                  . ; d l G O.<.>.E / 5.2.P n } b.C.B.x.$                                                               ",
"              . 4 / t.2.<.G X.<.>.4.4.>.x e.B.N.V.N.M.v                                                                 ",
"              t >.C k >.5.S <.4.4.4.<.Y n.N.N.N.N.M.C.*                                                                 ",
"            5 #.2 < f H >./ 4.4.4.4.T v.q.M.N.N.N.N.w.                                                                  ",
"          + ! 6 B ! 5.4.^ ^ 4.4.4.<.%.P ( B.N.V.N.V.b                                                                   ",
"        . #.r [ Z.! 4.4.4.4.4.4.4.4.4.$.m c.V.N.V.b.*                                                                   ",
".       @ p N A.| >.4.4.4.4.4.4.4.4.<.W ] b.m.B.B.M                                                                     ",
"  . Z u . X y { I $.4.4.4.4.4.4.4.4.4.U ' } ` n.b X                                                                     ",
". X q ! L.o.k <.2.4.4.4.4.4.4.4.4.4.4.4.<.T m = .                                                                       ",
"  . +./.!.! Q E E T H ^  .#.4.4.4.4.4.4.4.5.<.r                                                                         ",
"    7.`./.=.J E $.4.4.4.4.<.4.4.4.4.4.<.H & . @ X                                                                       ",
"  + ) ^.`./.+.H u k H #.O.4.4.4.4.4.4.<.H : X                                                                           ",
"  4 ~.`.`.`.`.`.`.`.Y.a.X.4.4.4.4.4.>.q C H j < X                                                                       ",
"    % g z._.`.`.`.`._.+.E $.4.4.4.4.T $.4.5.5.r./ 9 .                                                 . % a h 5         ",
"        : o.z.U.W.Q.3.@.4.4.4.4.4.4.@.4.4.4.4.4.5.5.X.e @ .                                         & u./.`.`.`.j.:     ",
"            . + X . X + > T ..<.4.4.<.4.4.4.4.4.4.4.5.5.5.^ r X                                   > U._.`.`.I.*.P d     ",
"                      4 #.4.4.<.4.4.4.4.4.4.4.4.4.4.5.4.5.5.r.#.<                               o ^ ^ Q./.6..           ",
"                    q <.4.4.4.>.2.<.4.^ E <.4.4.4.4.4.4.4.4.5.5.P X                           . Z 5.$.H 3.              ",
"                  4 4.4.4.4.4.^ T O.4.>.D.Z >. .G O.>.<.4.4.5.5.G .                           5 5.5.>.E @               ",
"                : $.5.5.4.4.4.X.i.-.X.<.G.S.k >.>.V 8 <.4.4.4.5.l                           @ O.5.5.5.T                 ",
"              e <.5.5.5.4.5.5.<.z G.8.i.G.G.S.k $.4.k 4.4.4.4.5.9 .                       O C 5.5.5.5.>                 ",
"          . A t.5.5.5.5.5.O.e . X i.G.G.G.G.G.D.H J Z 4.4.4.5./ i ^ q .                 + u 5.5.5.5.T .                 ",
"          r &.5.4.4.5.4.u         7 D.G.G.F.G.G.F.u <.4.4.4.>.6 #.4.5.>.k : O       . @ d 5.5.5.5.5.<                   ",
"        . < 5.5.4.5.>.<           . g F.G.G.G.G.T O.4.4.4.$.7 E 4.4.4.5.5.5...u - # q ^ r.5.5.5.5.V                     ",
"          & r.5.5.5.u                 a D.F.3.=.E 4.4.4.O.6 H 4.<.4.4.4.4.4.5.5.>.g 7 X.5.5.5.5.@.#                     ",
"          % 5.5.4.4.@                   4 _ W.!.=.C #.^ F S.a./ T <.4.4.4.4.4.4.4.5...1 ^ 5.r.4.6                       ",
"          . $.4.4.>.O       X     .   . U _.`.`.`._.8.2.G.G.G.G.k.T S >.4.4.4.4.4.4.4.$.7 O.<.q .                       ",
"            f 4.4.#.4 .   P Q.9 ; l.;.j._.`.`.`.`.`.G.S.G.G.G.G.G.G.k.Z ^ 4.4.4.4.4.4.4.>.r < .                         ",
"            4 #.R a._.J.J._._.w 5 _.`._.P.`.`.`.`.`.P.0.G.G.G.G.G.G.G.G.X.T 4.4.4.4.4.4.5.T X                           ",
"          . =.z.U.!.`.`._.J.R .   h =.t ,.`.`.`.`.`.G.3.G.G.G.G.G.G.G.G.G.R #.4.4.4.4.4.4.5.j                           ",
"          c _.`.`.`.`.T.t .             z._.`.`.`.`.s.u.G.G.G.G.G.G.G.G.G.D.C 4.4.4.4.4.4.4.5.S X                       ",
"        6 ~.`.`.`.`.^.w               o !.U./._.`.`.h.,.G.G.G.G.G.G.G.G.G.G.+.4.4.4.4.4.4.4.4.5.X.;                     ",
"      . z._.`.`.`.`._                 7 `.^.d./.L.`.W.8.G.G.G.G.G.G.G.G.G.G.2.>.4.4.4.4.4.4.4.4.4.<.r .                 ",
"      s `.z.`.!.`.R.o                 7 `._.r i.8.g.D.#.G.G.G.G.G.G.G.G.G.G.,.>.4.4.4.4.4.4.4.4.4.5.5.C X               ",
"    . p.`.3.`.h.`.u.                  @ Q.`.H X.^ X.X.T f.G.G.G.G.G.G.G.G.G.X.4.4.4.4.4.4.4.4.4.4.4.5.5.~ @             ",
"    . G.`.X./.9.`.)                 % H +.`._ 4.4.4.4.4.^ ,.G.G.G.H.H.H.H.D.R 5.4.5.5.4.4.4.1.4.4.4.4.5.5./ O           ",
"      s.E.q I.0.`.P               < >.5.E R H 2.4.1.5.r.>.E y k r 5 ; ; ; ; 6 r d G _ 5.5.5.4.4.4.4.4.4.5.r.t           ",
"      e =.. ^ i.`.P             . #.5.4.4.4.4.4.4.4.^ 9 X                           . . 9 T 5.4.4.4.4.4.5.#.a           ",
"              _ `.P             + T 5.4.4.4.4.4.4.E ;                                     % &.4.4.4.4.4.>.7 X           ",
"              % k.7             . . g <.<.<.4.4.<.5.g                                     C 4.4.4.4.1.O.r -.L s h & .   ",
"                .           > +.*.t . 7 E <.4.4.4.4.4.t .                             . 6 1.4.4.4.<.D s X.=.U.).J.;.,   ",
"                          . -.8.F._.g.#.+.c Q #.>.<.X.X.r X                           < ^ ..<.#.$./ I.`.`.(.!.h.P.!.S.0 ",
"                          9 p.T.P.J.`.`.`.`.J.! i._ c i.Y.q .                       % F._ S ,.k.X./.`.`.`.`.`.`.`.`.`.s.",
"                        ; !.`.`.R.U._.`.`.`.`.`.`.`.`.`.`.g.#                       H `._._.`._./.`.`.`.`.`.W.g.9.3._.;.",
"                        z `.^.! u.F.P.`.`.`.`.`.`.`.`.`.`.T.%                     . k _.`.`.`.`.`.`.`.`.`.`.`.`.`.H.A + ",
"                        4 ~.+.J.`.`.`.`.`.`.`.`.`.`.`.`._.3.X                       + A U.`.`.`.`.`.`.`.`.`.`.`.`.!.@   ",
"                          : r _.`.`.`.`.`.`.`.`.`.`.Q.a.a X                           . # g ,.j.I.R.!.R.k.U.~.^.T.T .   ",
"                            o h.^./.^.U.l.K.z.0.! r @ .                                   . . + + + + X . . + % +       ",
"                              . + + X .                                                                                 ",
"                                                                                                                        ",
"                                                                                                                        ",
"                                                                                                                        "
};
