/* XPM */
static char *ed632143da6345ebda4ad3cb07580534KgQAwHKBmOHaY0KP[] = {
/* columns rows colors chars-per-pixel */
"60 60 197 2 ",
"   c #000000",
".  c #090504",
"X  c #0E0A06",
"o  c #010309",
"O  c #0D0A0A",
"+  c #140E09",
"@  c #171008",
"#  c #1A120B",
"$  c #110E12",
"%  c #171114",
"&  c #1C1519",
"*  c #23190E",
"=  c #2A1D0F",
"-  c #261B11",
";  c #231F1F",
":  c #2F2114",
">  c #2A201E",
",  c #332314",
"<  c #3C2A16",
"1  c #372618",
"2  c #3E2C1B",
"3  c #311B23",
"4  c #262423",
"5  c #372A28",
"6  c #3A352B",
"7  c #3C2C33",
"8  c #402E17",
"9  c #412D1C",
"0  c #46311C",
"q  c #4A341C",
"w  c #51371D",
"e  c #543A1D",
"r  c #5A3D1E",
"t  c #43212F",
"y  c #493625",
"u  c #5B3E22",
"i  c #503A2A",
"p  c #493B37",
"a  c #523B35",
"s  c #5B421F",
"d  c #62431F",
"f  c #5E4121",
"g  c #4D483E",
"h  c #644522",
"j  c #664625",
"k  c #6D4A24",
"l  c #724E25",
"z  c #7B5425",
"x  c #7C5727",
"c  c #7C552D",
"v  c #513C44",
"b  c #663A43",
"n  c #7F3051",
"m  c #444241",
"M  c #5A5247",
"N  c #605645",
"B  c #6A614E",
"V  c #7C6242",
"C  c #6C6657",
"Z  c #746C5B",
"A  c #7B5962",
"S  c #7D7163",
"D  c #845A26",
"F  c #805629",
"G  c #845B2B",
"H  c #8A5D2B",
"J  c #8D612A",
"K  c #94652C",
"L  c #9B662B",
"P  c #99692B",
"I  c #9A692E",
"U  c #8C6034",
"Y  c #946733",
"T  c #9C6B31",
"R  c #AC6F27",
"E  c #A26C2D",
"W  c #A6712F",
"Q  c #AD722C",
"!  c #B3762B",
"~  c #B3792F",
"^  c #BC7C2E",
"/  c #A36E31",
"(  c #A67133",
")  c #AC7433",
"_  c #AD7936",
"`  c #A8793E",
"'  c #B37431",
"]  c #B47A33",
"[  c #BA7E35",
"{  c #B67D3D",
"}  c #9F6D58",
"|  c #9D7F5B",
" . c #A87D47",
".. c #8D6671",
"X. c #807E7D",
"o. c #BF802D",
"O. c #BD8233",
"+. c #B4803D",
"@. c #BE843B",
"#. c #C4822E",
"$. c #CB862D",
"%. c #CE892C",
"&. c #D0882C",
"*. c #C48433",
"=. c #C98632",
"-. c #C78834",
";. c #CB8832",
":. c #C6873B",
">. c #AD8046",
",. c #B68547",
"<. c #BF8B45",
"1. c #BF904E",
"2. c #AA8657",
"3. c #B48B54",
"4. c #9C9174",
"5. c #AD8A61",
"6. c #AB8C6A",
"7. c #B18F60",
"8. c #B69463",
"9. c #BB9463",
"0. c #BE9A67",
"q. c #B59A6F",
"w. c #AE847B",
"e. c #A99874",
"r. c #BA9B71",
"t. c #B49C7A",
"y. c #BCA47C",
"u. c #C58847",
"i. c #C4964F",
"p. c #C68556",
"a. c #C4845B",
"s. c #C29657",
"d. c #CBA05E",
"f. c #CB8863",
"g. c #D28E6D",
"h. c #C29760",
"j. c #C49C63",
"k. c #C29D6C",
"l. c #CF8D7C",
"z. c #D28F7A",
"x. c #D59075",
"c. c #CBA163",
"v. c #C1A273",
"b. c #C5A679",
"n. c #9D7381",
"m. c #D64A85",
"M. c #E64C8A",
"N. c #D8768C",
"B. c #E26E91",
"V. c #999898",
"C. c #AC9F82",
"Z. c #BE8996",
"A. c #B2A389",
"S. c #B8A98B",
"D. c #A5A19D",
"F. c #BBAE92",
"G. c #B6B5B4",
"H. c #D18E81",
"J. c #D79387",
"K. c #CD909C",
"L. c #DD9796",
"P. c #E3998D",
"I. c #E39C98",
"U. c #C3AB85",
"Y. c #CDAF8B",
"T. c #D6B883",
"R. c #C7B595",
"E. c #CD91A1",
"W. c #DFA0AE",
"Q. c #C5B4A0",
"!. c #EAAAA5",
"~. c #E4BAA6",
"^. c #EEA7B5",
"/. c #F5A9B6",
"(. c #F2A9B9",
"). c #CFC19C",
"_. c #D9C297",
"`. c #E4CD9F",
"'. c #D9C9A6",
"]. c #D7C8B7",
"[. c #E6D1A5",
"{. c #EFDCAF",
"}. c #E2D5B0",
"|. c #EEDDB3",
" X c #F0DCB1",
".X c #EFE0B9",
"XX c #F4E3B5",
"oX c #F8E6B7",
"OX c #F5E5BA",
"+X c #F9E7BB",
"@X c #F7E9BA",
"#X c #F9E8BA",
"$X c #DBDAD9",
"%X c #E2DDD1",
"&X c #EAE4DC",
"*X c #FAFAF6",
"=X c #FEFEFD",
/* pixels */
"                                                                                                                        ",
"                                                                                                                        ",
"                                                                                                                        ",
"                                  + w r <                       o                                                       ",
"                                , { [ *.%.( 1                 > .                                                       ",
"                                } L./.L.a.=.;.F X         # j y i i 6 > $ o                                             ",
"                              7 ^././././.H.=.%.] =   @ l ( j 1 O                                                       ",
"                              Z././././././.l.=.%.*.l *.%.%.=.O.O.) H k ,                                               ",
"                            & (././././././.(.a.%.%.#.$.%.%.Q L ~ ! $.%.%.[ h X                                         ",
"                            7 (./././././././.I.*.%.%.%.%.*.E -.L Q ;.%.&.%.=.c :                                       ",
"                            5 (././././././././.p.%.%.%.%.#.=.%.E E %.%.%.%.#.;./ 0                                     ",
"                            % (././././././././.z.%.%.%.%.%.%.@.S.6.$.%.%.%.%.;./ P +                                   ",
"                              E././././././././.J.%.%.%.%.%.%.Y.=X*Xr.%.%.%.*.Q.A.*.h                                   ",
"                              A /./././././././.x.%.%.%.%.%.%.R.=X=X&XO.%.%.h.=X=X3.Y                                   ",
"                              & ^././././.P.!.I.:.%.%.%.%.%.%.k.=X=X=X9.%.%.k.=X=Xv.K                                   ",
"                                .././././.P.u.:.$.%.%.%.%.%.%.@.*X=X=XR.%.%.j.=X=Xb.x                                   ",
"                                % W./././././.J.#.%.%.%.%.%.%.;.].=XV.Q.;.%.,.G.$X9.q                                   ",
"                                  v /././././.g.%.%.%.%.%.%.%.%.0.=X4 S ;.%.O.g V.3.+                                   ",
"                                    .././././.f.%.#.o.#.=.;.%.#.] %Xm y ;.%.;.2 D.+.O     o o                           ",
"                                      n./././.z.%.;.#.! R Q / E ] q.R.e.c.] K V F.@.u O o                               ",
"                                      . ..(./.I.=.%.%.%.;.*.O.] L G OX#XXX6 X.g OX2.E Y .                               ",
"                                          p K.(.a.%.%.$.! _ _ ] ~  .OX#X+XC.M 4.OXs.#.[ - o o o o o                     ",
"                                              5 a *.%.%.%.c.XX`.9 p '.OX+XR.R.).v.;.%.~             o                   ",
"                                                  2 *.%.%.1.+XOXb 3 ; 5 6 B }.XXs.%.*.2                                 ",
"                                                    - ) %.O. X#XN.m.n ; 6 .X#XoX<.I #                                   ",
"                                                      0 ~ ^ q.#X~.M.M.t S.#X@Xy.q                                       ",
"                                                  * T %.&.%.O.r.OX!.B.w.|.T.h.q                                         ",
"                                                < *.%.%.%.%.%.] j.OX+X{.i.%.%.;.e                                       ",
"                                              < =.%.%.%.%.%.%.%.%.u.d.:.%.^ $.%.=.,                                     ",
"                                            , *.%.%.%.%.%.%.%.%.%.;.%.%.%.) ) %.%.)                                     ",
"                                          # O.%.%.%.%.%.%.%.%.%.` q.O.%._ t.I ;.%.%.0                                   ",
"                                          T %.%.%.%.%.%.%.$.%.*.U.+X2.*.t.+X2.%.%.%./                                   ",
"                                        r %.%.%.%.%.%.;.! ^ %. .OX#X'.6.OX#X5.%.%.%.%.w                                 ",
"                                      # *.%.%.%.%.~ r F =.%.#.U.+X#X#X#X+X+X8.%.%.%.%.*.#                               ",
"                                    1 I %.%.%.O.r   . ] %.%.` OX#X#X#X#X#X#X| ;.%.%.%.%.E                               ",
"                              . u ] %.%.%.%.G +     f %.%.=.U.#X#X#X#X#X#X+XC w =.%.%.%.%.k                             ",
"                          : ] O.! $.&.%.%.r       < =.%.%.>.OX#X#X#X#X#X#X#XZ   < O.%.%.%.$.k .                         ",
"                          * L L E #.%.%.%.q     s =.%.%.=.y.#X#X#X#X#X#X#X@XZ     # I %.%.%.%.] l q 9                   ",
"                            h ;.;.] L *.%.d   G %.%.%.%.>.OX#X#X#X#X#X#X#X#XN         e ;.%.%.%.=.) T .                 ",
"                            2 z 0     + I #.H ;.%.%.%.O._.#X#X#X#X#X#X#X#X+X6         * ;.%.%.%.^ ' k O                 ",
"                      = q < X           X I ^ %.%.%.;.8.+X#X#X#X#X#X#X#X#X|.O         G %.P w G E ~ P #                 ",
"                  * Y K z J @.G ,         c %.%.%.%.>.OX#X#X#X#X#X#X#X#X#XA.          j u .                             ",
"                  5 .       * E ;.[ J l u O.%.%.%.%.v.#X#X#X#X#X#X#X#X#X+XM                                             ",
"                                < D ~ -.T %.%.%.%.$.b.#X#X#X#X#X#X#X#X#X'..                                             ",
"                                      . h %.%.%.%.%.y.#X#X#X#X#X#X#X#X{.N                                               ",
"                                        x %.%.%.%.%.3.OX+X#X#X#X#X#X[.<.e                                               ",
"                                        K %.%.%.%.%.$.7.|.#X#X#XXXb.O.%.k                                               ",
"                                        E %.%.%.%.%.%.%.] 3.0.j.@.$.%.%.L                                               ",
"                                      . *.%.%.%.%.%.%.P j ~ %.%.%.%.%.%.*..                                             ",
"                                      , $.%.%.%.%.] <     * E %.%.%.%.%.%.,                                             ",
"                                      z %.%.%.%.G X         . z %.%.%.%.%.k                                             ",
"                                    * *.%.%.=.f                 h $.%.%.%.W                                             ",
"                              * h ( =.%.%.=.8                     l %.%.%.;.<                                           ",
"                          , T $.%.%.%.%.%.j                       # %.%.%.%.%./ <                                       ",
"                        1 -.! ' $.%.%.%.%.u                         ] %.%.%.^ ! *.H .                                   ",
"                        # U *.%.%.%.-.T q                           1 ] ;.%.%.-.) -.y                                   ",
"                            e l e 1 X                                 . : 0 0 , + +                                     ",
"                                                                                                                        ",
"                                                                                                                        ",
"                                                                                                                        "
};
