/* XPM */
static char *_cfe2ade2f064e35ab67f592fcd07166GL1IsNjJumv2vGUR[] = {
/* columns rows colors chars-per-pixel */
"60 60 192 2 ",
"   c #000000",
".  c #090605",
"X  c #0C0806",
"o  c #060308",
"O  c #090709",
"+  c #0C0909",
"@  c #120C07",
"#  c #120D0B",
"$  c #1D130A",
"%  c #1B1917",
"&  c #20150B",
"*  c #251A11",
"=  c #2B1D11",
"-  c #211E1F",
";  c #2A1F1B",
":  c #311F12",
">  c #2F2012",
",  c #2B221D",
"<  c #342414",
"1  c #392616",
"2  c #3B2916",
"3  c #3C2B1B",
"4  c #2B1C21",
"5  c #2D2627",
"6  c #332024",
"7  c #342F29",
"8  c #3B372E",
"9  c #3C2B32",
"0  c #373430",
"q  c #3C3333",
"w  c #432C16",
"e  c #432D1A",
"r  c #482F19",
"t  c #46311A",
"y  c #4C341B",
"u  c #52371B",
"i  c #553B1D",
"p  c #5A3C1E",
"a  c #402F25",
"s  c #523A24",
"d  c #5B3E21",
"f  c #5D2E3E",
"g  c #473E34",
"h  c #4E453B",
"j  c #554A38",
"k  c #644524",
"l  c #694926",
"z  c #6E4A24",
"x  c #724E23",
"c  c #775326",
"v  c #7A5425",
"b  c #795229",
"n  c #624637",
"m  c #5A3E46",
"M  c #692A43",
"N  c #554E40",
"B  c #595245",
"V  c #60434B",
"C  c #674953",
"Z  c #74535D",
"A  c #786346",
"S  c #815625",
"D  c #875B26",
"F  c #815929",
"G  c #8C5E2A",
"H  c #8D622B",
"J  c #946226",
"K  c #93642B",
"L  c #9A662A",
"P  c #96682E",
"I  c #9C6A2C",
"U  c #8D6539",
"Y  c #9D6730",
"T  c #9E6B31",
"R  c #AB6F27",
"E  c #A36D2C",
"W  c #A96E29",
"Q  c #A7702A",
"!  c #AB722D",
"~  c #B2752B",
"^  c #B57A2E",
"/  c #BA7D2D",
"(  c #A56E30",
")  c #AB7531",
"_  c #A5753A",
"`  c #B07730",
"'  c #B47A32",
"]  c #BC7E32",
"[  c #B77E3A",
"{  c #C07F2B",
"}  c #987346",
"|  c #80785E",
" . c #A67C48",
".. c #827E7E",
"X. c #9E717C",
"o. c #B37A61",
"O. c #BF802E",
"+. c #BE8233",
"@. c #B9833B",
"#. c #BF893E",
"$. c #CD8927",
"%. c #C2822D",
"&. c #CB862D",
"*. c #CE892C",
"=. c #D0872C",
"-. c #D0882C",
";. c #C58532",
":. c #C98632",
">. c #CB8831",
",. c #C08439",
"<. c #AC8043",
"1. c #AC824A",
"2. c #B98747",
"3. c #BE8B46",
"4. c #A98457",
"5. c #AE8956",
"6. c #B48C57",
"7. c #BD9159",
"8. c #928269",
"9. c #908570",
"0. c #9B9073",
"q. c #AE8F64",
"w. c #AC946E",
"e. c #BB9666",
"r. c #BF9C65",
"t. c #AC9674",
"y. c #B59C76",
"u. c #C38245",
"i. c #C49047",
"p. c #C58254",
"a. c #CC8A5A",
"s. c #C69A5C",
"d. c #CCA05F",
"f. c #CE8B64",
"g. c #C8896B",
"h. c #C39E68",
"j. c #CA8875",
"k. c #D18D79",
"l. c #C4A97E",
"z. c #C9A87B",
"x. c #D0AE77",
"c. c #A87883",
"v. c #D84887",
"b. c #E94A88",
"n. c #D76387",
"m. c #E26B8F",
"M. c #8E9091",
"N. c #B6828E",
"B. c #B29683",
"V. c #BC8493",
"C. c #B8A887",
"Z. c #BCAE91",
"A. c #AAA8A3",
"S. c #B8B6B3",
"D. c #DB968B",
"F. c #DC9694",
"G. c #E2998D",
"H. c #C7AB83",
"J. c #C9AE8A",
"K. c #C7B186",
"L. c #CAB58C",
"P. c #D3B482",
"I. c #C3AE93",
"U. c #DDA79E",
"Y. c #C7B795",
"T. c #D2BD94",
"R. c #D1BF98",
"E. c #DD9CA9",
"W. c #C8BCAA",
"Q. c #E8A4A4",
"!. c #F0A7AF",
"~. c #EBA5B2",
"^. c #F5A9B6",
"/. c #CEC19B",
"(. c #DFC69A",
"). c #D4C3AC",
"_. c #DBCEAA",
"`. c #DCD0AB",
"'. c #E5D6AE",
"]. c #E9D7A9",
"[. c #EFDEB6",
"{. c #F1DDB0",
"}. c #F4E2B4",
"|. c #F6E6BA",
" X c #F8E7BB",
".X c #F7E8BB",
"XX c #F9E8BA",
"oX c #D9D0C3",
"OX c #E4DCD3",
"+X c #EAEAE7",
"@X c #F9F9F4",
"#X c #FEFEFD",
/* pixels */
"                                                                                                                        ",
"                                                                                                                        ",
"                                                                                                                        ",
"                                                      o                       < p i $                                   ",
"                                                        ,                 = I &.:.] [ r                                 ",
"                                              # ; a s s e k *         . x :.&.p.D.^.F.o..                               ",
"                                                      X < k T S &   $ ( *.:.j.^.^.^.^.^.m                               ",
"                                              = l G ) ;.+.:.&.*.:.b ] &.*.g.^.^.^.^.^.^.E..                             ",
"                                        . d ' >.-.*.~ %.J W &.*.*.%.*.&.u.^.^.^.^.^.^.^.^.9                             ",
"                                      * b ] *.&.&.&.! W ;.~ ~ *.*.*.*.&.D.^.^.^.^.^.^.^.^.V                             ",
"                                    < T >.%.&.*.&.&.E ! &.>./ &.&.*.*.u.^.^.^.^.^.^.^.^.^.m                             ",
"                                  . G ( ;.&.*.*.&.&.4.I.3.&.&.&.&.&.&.g.^.^.^.^.^.^.^.^.^.9                             ",
"                                  y >.t.W.,.&.*.-.7.@X#X).&.&.&.&.&.&.k.^.^.^.^.^.^.^.^.~.O                             ",
"                                  v @.@X#Xz.&.*.:.oX#X#X).&.&.&.&.&.*.f.^.^.^.^.^.^.^.^.X.                              ",
"                                  v 7.#X#XJ.&.&.2.#X#X#XJ.&.&.&.&.&.*.:.D.!.G.^.^.^.^.^.9                               ",
"                                  k s.#X#XJ.&.*.z.#X#X#X3.&.&.&.&.&.&.&.:.u.D.^.^.^.^.N.                                ",
"                                  < 2.+XA.e.*.>.I.M.#XOX;.&.*.*.&.&.*.&.k.!.^.^.^.^.~.5                                 ",
"                                  . <.S.0 @.*.&.8.- +XH.*.*.&.&.*.*.&.*.a.^.^.^.^.^.Z                                   ",
"                                    @.A., ;.*.*.j 5 +X[ %.*.&.:.%.O.%.*.p.^.^.^.^.c.                                    ",
"                                O r ;.Z.A L ) s.t.Z.C.^ E E Q R ~ { >.&.f.^.^.^.V.O                                     ",
"                                F E }  XB ..0 '.XXXXU L ' / ;.>.&.&.*.:.D.^.^.c.+                                       ",
"                              @ [ %.3.|.C.B 0. XXXXX5.^ ^ ' ) ^ &.&.&.u.^.E.C                                           ",
"                                I *.*.r./.Y.Z. X X`.N 3 T.}.x.&.*.*.&.n q .                                             ",
"                                = +.>.3.|.'.| 7 7 , 4 f [.XXh.&.*.:.i                                                   ",
"                                  # H +.{.XX|.j - M v.n. X|.@.&.] 2                                                     ",
"                                      e w. X.X/.6 v.b.U.XXH.^ ^ p .                                                     ",
"                                        1 7.P.].B.m.Q.|.l.+.*.&.*.! <                                                   ",
"                                      w ;.&.&.i.]. X|.x.' &.&.&.&.*.;.u                                                 ",
"                                    & ;.&.&./ &.;.d.i.&.&.&.&.&.*.&.&.&.i                                               ",
"                                    P &.&.~ ) >.*.&.&.&.*.&.&.&.&.&.&.&.>.r                                             ",
"                                  > *.*.&.( t._ -.&.q. .&.&.&.&.&.&.&.&.*.;.=                                           ",
"                                  G *.&.&._  XK./  . X/.] *.&.&.&.&.&.&.*.&.) .                                         ",
"                                2 >.*.&.&. .XX.Xy.R.XXXX5.&.%.! &.&.&.&.*.&.&.v                                         ",
"                              @ ' *.&.*.&.1.XXXXXXXXXXXXT./ &.*.K u Q &.*.*.&.>.>                                       ",
"                              G &.&.&.&.&.} .XXXXXXXXXXX X1.&.*.;.@   y ' =.&.*.Q e .                                   ",
"                            p &.*.&.&.*.z h XXXXXXXXXXXXXXT.;.*.&.v     X c *.*.*.*.] l X                               ",
"                          p :.&.&.*.;.u   N XXXXXXXXXXXXXXXX6.-.&.&.u       r >.*.-.&.~ ] ] r                           ",
"                  3 y x ) *.*.&.*.) =     j XXXXXXXXXXXXXXXXT.+.&.*.>.x .   < &.*.&.&.E L L 1                           ",
"                  K Q %.&.&.&.&.z         8 XXXXXXXXXXXXXXXXXX5.&.&.*.*.P . t &.:.E Q &.>.b                             ",
"                . p ` ~ &.&.&.&.3         % .XXXXXXXXXXXXXXXXX'.@.*.&.*.&.K / ! &     2 v i                             ",
"                + G ^ Q G i D &.I           _.XXXXXXXXXXXXXXXXXXl.&.*.&.&.%.Q $           X 2 y < .                     ",
"                              u z .         9.XXXXXXXXXXXXXXXXXXXX5.*.&.*.&.P         = v +.I S J _ <                   ",
"                                            0 .XXXXXXXXXXXXXXXXXXXK.&.&.&.*.>.k x D ' &.~ <       . 3 .                 ",
"                                              Y.XXXXXXXXXXXXXXXXXXL.>.&.&.&.&.Y >.] K y .                               ",
"                                              g ].XXXXXXXXXXXXXXXXK.>.&.&.&.&.S X                                       ",
"                                              2 #.(.XXXXXXXXXXXXXXe.&.&.&.&.*.E                                         ",
"                                              u *.;.h.{.XXXXXX}.e.%.*.&.&.&.&.'                                         ",
"                                              v &.*.&.+.s.r.6.' *.*.&.&.&.&.&.+.                                        ",
"                                              ` *.*.*.&.&.&.{ x I &.&.&.&.&.&.*.$                                       ",
"                                            $ >.&.&.&.*.*./ <     < ) &.&.&.&.&.u                                       ",
"                                            s &.&.&.&.&.I @         . c &.&.&.*.L                                       ",
"                                            K *.&.*.&.F .               u ;.&.*.>.<                                     ",
"                                          = ;.&.&.&.K                     < %.*.*.&.' c =                               ",
"                                      < L >.$.*.*.&.<                       u &.*.*.*.&.*.) w                           ",
"                                    b :.~ / *.&.*.;.#                       e &.*.&.&.&.^ ~ :.u                         ",
"                                  1 >.) ;.*.&.>.+.y                           e L ;.&.&.&.:.K *                         ",
"                                    # # : t y < .                                 X < i z k .                           ",
"                                                                                                                        ",
"                                                                                                                        ",
"                                                                                                                        "
};
