/* XPM */
static char *_8eb1fbe079840debbe68da847c6ca26XEaSa1BupVt6dmpz[] = {
/* columns rows colors chars-per-pixel */
"60 60 218 2 ",
"   c #000000",
".  c #080807",
"X  c #0C0B0B",
"o  c #150E0D",
"O  c #1A1918",
"+  c #2F1916",
"@  c #292725",
"#  c #2D2C2A",
"$  c #332E2B",
"%  c #33322F",
"&  c #353432",
"*  c #3C3A37",
"=  c #64251E",
"-  c #4F3935",
";  c #7E332A",
":  c #47423D",
">  c #6E4339",
",  c #4D4643",
"<  c #4C4945",
"1  c #524E4A",
"2  c #56524E",
"3  c #5C5853",
"4  c #625D58",
"5  c #6A645D",
"6  c #6C6863",
"7  c #736C67",
"8  c #78726A",
"9  c #727175",
"0  c #962516",
"q  c #942D1C",
"w  c #A32718",
"e  c #A42B1B",
"r  c #AB2B1B",
"t  c #B32D1B",
"y  c #BA2F1C",
"u  c #B5321D",
"i  c #BD331E",
"p  c #BB391F",
"a  c #9C3A26",
"s  c #A83724",
"d  c #BC3522",
"f  c #B83823",
"g  c #C2341E",
"h  c #CA3A1F",
"j  c #C43621",
"k  c #C43923",
"l  c #CA3A23",
"z  c #CB3B25",
"x  c #C53D29",
"c  c #D53E26",
"v  c #D33F29",
"b  c #9A4A3A",
"n  c #BA4529",
"m  c #A74936",
"M  c #B85337",
"N  c #BD6139",
"B  c #C8432C",
"V  c #D5422A",
"C  c #D74429",
"Z  c #DB432B",
"A  c #C74D33",
"S  c #D74933",
"D  c #DB4B33",
"F  c #CA533B",
"G  c #D7573B",
"H  c #E0452D",
"J  c #985343",
"K  c #AE5847",
"L  c #B75D49",
"P  c #B66955",
"I  c #B46C58",
"U  c #837C74",
"Y  c #B97966",
"T  c #E05E41",
"R  c #C5694F",
"E  c #DD6142",
"W  c #D76A4A",
"Q  c #DA7B47",
"!  c #D86E53",
"~  c #DB7455",
"^  c #D47658",
"/  c #DC7C5B",
"(  c #E36748",
")  c #E47746",
"_  c #D3853B",
"`  c #B38042",
"'  c #8A847B",
"]  c #90867C",
"[  c #B58973",
"{  c #D58A58",
"}  c #E5854A",
"|  c #EDAD54",
" . c #DD8666",
".. c #C38976",
"X. c #C5947F",
"o. c #E48C6E",
"O. c #FBD070",
"+. c #376494",
"@. c #055BA5",
"#. c #095EA5",
"$. c #0661AC",
"%. c #0D65AD",
"&. c #1669AD",
"*. c #1C6DB0",
"=. c #2D6EA3",
"-. c #206FB1",
";. c #2372B1",
":. c #2A76B4",
">. c #2D79B4",
",. c #327DB6",
"<. c #476888",
"1. c #486E9A",
"2. c #517AA4",
"3. c #3681B9",
"4. c #3C88BC",
"5. c #5683A7",
"6. c #428CBE",
"7. c #648CAA",
"8. c #6D94AF",
"9. c #779CB1",
"0. c #3E8AC1",
"q. c #428EC0",
"w. c #4A95C3",
"e. c #4A96C4",
"r. c #519DC6",
"t. c #539EC9",
"y. c #5AA5CA",
"u. c #5BA6CB",
"i. c #64ABCD",
"p. c #69ADCF",
"a. c #6BB0CE",
"s. c #77B4CF",
"d. c #6BAED0",
"f. c #6FB1D1",
"g. c #74B4D3",
"h. c #7BB8D5",
"j. c #958D84",
"k. c #928F8B",
"l. c #9E978D",
"z. c #A2998D",
"x. c #B09B84",
"c. c #A49D93",
"v. c #B9A58E",
"b. c #ACA499",
"n. c #B7AB9A",
"m. c #BFB09E",
"M. c #97A9AE",
"N. c #87A4B5",
"B. c #98ADBC",
"V. c #A7AFAC",
"C. c #B6ADA2",
"Z. c #B8B1A6",
"A. c #C69B87",
"S. c #D3A795",
"D. c #C5B39D",
"F. c #D3B19C",
"G. c #C5B5A4",
"H. c #CABAA7",
"J. c #CCBAA4",
"K. c #C4BBAC",
"L. c #D6BDA7",
"P. c #C8BEB1",
"I. c #E6B9A4",
"U. c #CFC2AF",
"Y. c #D4C3AD",
"T. c #DBC5AF",
"R. c #CDC4B6",
"E. c #D5C5B4",
"W. c #DBCAB5",
"Q. c #D8C8B7",
"!. c #DBCDBB",
"~. c #DDD1BE",
"^. c #E5C8B5",
"/. c #EDC8B4",
"(. c #E3D4BE",
"). c #98BACC",
"_. c #86BDD6",
"`. c #83BCD9",
"'. c #A9B7C1",
"]. c #B5BDC4",
"[. c #87C0D9",
"{. c #8CC1D9",
"}. c #94C4DC",
"|. c #9AC5D9",
" X c #98C7DE",
".X c #9CC9DD",
"XX c #BACBCF",
"oX c #A8CAD6",
"OX c #A3CCDE",
"+X c #9DCAE1",
"@X c #A6CEE2",
"#X c #ABD2E3",
"$X c #B2D5E4",
"%X c #B8D9E7",
"&X c #BDDDE9",
"*X c #CBCAC8",
"=X c #DACEC6",
"-X c #DDD2C2",
";X c #CED0D0",
":X c #E4D5C3",
">X c #E8D7C5",
",X c #E6D9C5",
"<X c #E8D8C5",
"1X c #E4D4CC",
"2X c #E6DAC9",
"3X c #EADCCB",
"4X c #ECE1CF",
"5X c #EDE3D3",
"6X c #EDE5D9",
"7X c #F2E7DA",
"8X c #C3DEE9",
"9X c #C6E2EC",
"0X c #CBE3ED",
"qX c #D2E8EE",
"wX c #DBE9ED",
"eX c #D5E8F1",
"rX c #DAEBF2",
"tX c #F5EBE1",
/* pixels */
"                                                > b + .                                                                 ",
"                                                R A 0 = O                                                               ",
"                                              . R A 0 0 0 = o                                 .                         ",
"      % % $ # # # # & & & % $ # % & % # @ @ # @ R A 0 e r w q = $ , < 2 5 7 8 U U ] l.b.n.n.Z.l.                        ",
"    . C.!.:X(.:X:X:X:X:X:X:X:X:X:X:X:X:X:X:X:X^.W A w r t i g u s Y ^.:X:X:X:X:X:X:X:X:X:X:XQ.]                         ",
"      . * Q.:X:X:X:X:X:X:X:X(.:X:X:X:X:X:X:X:X/.W F w w u i i g u r a Y L.:XQ.:X:X:X:X:X:X:XE.4                         ",
"      < -X:X:X:X,X,X2X2X2X2X2X2X2X3X3X3X3X3X3X/.W F e w u y d j g g u 0 b F.G.!.:X:X:X:X:X:X:X<                         ",
"      X 2 c.U.Y.Y.Y.Q.J.D.G.G.G.G.H.H.H.H.H.H.F.W F e r y d f d d g g t 0 q J A.Q.!.Q.Q.W.W.j.X                         ",
"            O 8 J.v.Y.v.7 <.<.<.<.<.<.<.<.<.<.9 ! F r d g j d d x d d d r 0 0 J L.D.[ G.5 %                             ",
"              < Q.Q.Q.D.k.#.@.@.@.@.@.@.@.@.@.+.^ F r d g g j g i d x d t w 0 I Y.L.T.z.                                ",
"              * (.:X(.J.c.#.@.$.$.$.$.$.$.$.$.+.^ F t d g j g g g g i d f 0 0 Y Q.:X(.'                                 ",
"              $ (.:X(.J.c.&.%.%.%.%.&.&.&.&.&.+.^ F u k j j j j g j g j d e 0 [ :X:X(.8                                 ",
"              @ :X:X(.Y.b.=.&.&.*.&.*.*.*.*.*.1.^ G d k j k k k k j j j d r 0 X.,X:X:X2                                 ",
"              X !.W.T.E.b.=.*.-.-.;.;.;.;.;.;.1.^ G d k j k j j j j k j d u q S.,X:X2X&                                 ",
"              . E.J.D.Q.b.=.;.;.:.:.:.:.:.:.:.2.^ G k k k k j k g j k k d f q F.,X,X:XO                                 ",
"                Z.Y.J.!.n.2.>.>.,.,.,.,.,.,.,.2.^ G j k k k l k A j k k k d a L.:X,X!..                                 ",
"                l.(.Q.:Xn.5.,.3.3.3.3.3.3.3.3.2.^ G l x z l h z M k k j k d a T.:X<XK.                                  ",
"                ' :X:X,Xn.5.4.4.4.4.4.4.6.4.0.5.^ G l x l l h l p k l j x d m Q.:X:Xc.                                  ",
"                8 :X:X2Xn.7.6.6.6.q.q.q.6.6.q.7.^ G l z l k k l l l l k x d m (.:X:X'                                   ",
"                3 :X:X3Xn.8.6.w.w.w.w.w.e.w.w.7.^ E k z l l h l l l l l x d K ,X:X,X7                                   ",
"                * >X<X4Xn.8.w.e.e.e.e.e.e.r.r.8./ E z z z C Z Z Z z h l x j P -X:X:X2                                   ",
"                @ :X2X5Xm.9.r.r.r.r.r.t.t.t.t.8./ E z V Z Z Z Z Z Z c z x d I n.E.:X&                                   ",
"                O :X2X5XD.N.t.t.y.y.y.y.y.y.y.9./ E C Z Z Z Z Z Z Z Z c x d ..6X,X:XO                                   ",
"                X -X2X5XG.N.y.y.y.y.y.y.y.y.y.9./ ( Z Z Z Z Z Z Z Z Z C z d X.5X,X-X.                                   ",
"                  R.,X4XH.M.y.y.i.i.i.i.i.i.i.N./ ( Z C Z Z Z Z Z Z Z C V f A.5X:XP.                                    ",
"                  C.,X4XJ.M.i.i.i.i.p.d.p.d.a.N./ ( Z C C C Z C c Z Z C V f F.4X>Xb.                                    ",
"                  c.,X3XY.M.p.d.d.f.f.f.g.g.g.N.{ ( Z V V S D D D D S V C f L.4X<Xj.                                    ",
"                  ' ,X3XE.V.g.f.g.g.g.g.g.g.g.B. .( Z Z H Z Z Z Z C C c C n ^.3X<X8                                     ",
"                  8 ,X2XQ.V.s.g.g.h.h.h.h.h.h.B. .) ) ) D D Z H Z Z Z Z Z M (.2X,X2                                     ",
"                  4 <X2X!.V.h.h.h.`.`.`.`.`._.B. .) | O.} D S S Z C C c Z M :X2X2X&                                     ",
"                  < ,X2X~.V._.`._.`.`.`.{.{.{.'.o.Q | O.} Z Z Z Z Z C C C L 2X,X2XO                                     ",
"                  & <X2X-XZ._.[._._.{.{.{.{.}.B.R Q _ _ D H Z Z Z Z Z D C P 3X,X-XX                                     ",
"                  @ :X2X:XZ.).{.{.}.}.}.}.}.}.'. .Q | N S Z Z Z Z Z Z S V I 5XJ.K.                                      ",
"                  O :X2X2XC.|.}.}.}.}. X X X X'.o.Q ` N Z Z Z Z Z Z C Z z Y 7XJ.b.                                      ",
"                  X -X2X2XC.|. X X X.X.X.X+X.X].o.Q { N C S D D D D V C z ..7XE.]                                       ",
"                    R.2X2Xm.oX.X+X.XOXOXOX@XOX]. .Q | N V V V V C Z Z Z x A.7X<X7                                       ",
"                    Z.2X3Xm.oXOX@XOXOX@XOX@X@X]./ W n u Z Z Z Z Z Z Z Z d S.5X,X1                                       ",
"                    c.<X4Xm.oX@X#X#X#X#X#X#X#XXX/ E C Z Z Z C V V V V c f F.5X2X&                                       ",
"                    ' <X:Xn.XX#X#X#X#X#X#X$X$XXX/ E C V C S D G D V v C f L.3X:XO                                       ",
"                    8 ,Xn.n.XX$X$X$X$X$X$X$X$X*X/ E C V V V V V Z C C v n T.2X!.X                                       ",
"                    5 ,X5XG.XX%X%X%X%X%X%X%X%X*X/ T v v Z Z Z Z Z Z V C M ^.2XP.                                        ",
"                    2 ,X4Xm.XX&X&X&X&X&X&X&X&X*X~ G v Z Z Z Z Z Z Z V v M (.,Xn.                                        ",
"                    - :X3XD.;X8X8X9X8X8X8X8X8X*X~ G v Z Z Z Z Z Z Z V v L :X:Xz.                                        ",
"                    @ :X2XG.;X9X9X9X9X9X9X9X9X*X~ G v C Z Z Z Z Z Z V z P ,X:XU                                         ",
"                    O :X2XH.;X0X0X0X0X0X0X0X0X=X~ G C C Z Z Z Z v c V z I 2X:X4                                         ",
"                    X -X,XJ.*XqXqXqXeXeXeXeXeX=X~ G C C Z Z Z c v c V k Y 2X:X:                                         ",
"                    . E.,XJ.*XeXwXrXrXrXeXrXrX1X~ G v C c c c c c c V j [ 2X:X#                                         ",
"                      K.,XU.*XrXrXrXrXrXrXrXrX1X~ G v C c c c c c c V d A.2X:XO                                         ",
"                      n.:XY.*XrXrXrXrXrXrXrXrX1X! G v V c c c c c c z f S.,X-XX                                         ",
"                      z.:XY.R.rXwXrXrXrXrXrXrX1X! S v V c c c c v z l s F.:XU..                                         ",
"                      j.:XE.R.wXrXrXrXrXrXrXrX1X! A c v c c c c c z g s L.:XC.                                          ",
"                      U :XY.P.wXrXrXrXrXeXrXrX1X! A z c c c l z V k i s L.:Xz.                                          ",
"                      5 :XY.K.wXrXrXrXrXrXrXwX1XW A l l l z V V z j i m L.:X'                                           ",
"                      1 Y.L.K.wXwXwXwXwXwXwXwX1X! B j z V V z c z i t m L.Q.5                                           ",
"                    - b.v.L.(.6X6X6X6X6X6X6X5X/.W B i z z c c z g t e Y L.x.U                                           ",
"                  6 3X5X5X5X7X7X7X7X7XtX7XtXtX/.W B u z c c c g r m S.7X6X4X4XZ.<                                       ",
"                  2 ~.:X:X:X:X:X:X:X:X2X,X2X,X^.W B t g c c i s Y ^.:X:X:X:X:X:Xc.                                      ",
"                  X U :X:X:X:X:X:X:X:X:X:X:X:XI.W B r y y s L S.(.:X:X:X:X:X:X!.2                                       ",
"                    o * < 2 2 3 4 4 3 2 2 2 1 - W n r e ; - : 2 3 5 6 7 8 8 8 6 X                                       ",
"                                              o W n ; +                                                                 "
};
