/* XPM */
static char *_c8666cf025d46eacab03db218465c70XBUjuTa7WMs4pYgR[] = {
/* columns rows colors chars-per-pixel */
"60 60 112 2 ",
"   c black",
".  c #010101",
"X  c #020202",
"o  c gray1",
"O  c #040404",
"+  c gray2",
"@  c #060606",
"#  c #070707",
"$  c gray3",
"%  c #090909",
"&  c gray4",
"*  c #0B0B0B",
"=  c #0C0C0C",
"-  c gray5",
";  c #0E0E0E",
":  c gray6",
">  c #101010",
",  c #111111",
"<  c gray7",
"1  c #131313",
"2  c gray8",
"3  c #151515",
"4  c #161616",
"5  c gray9",
"6  c #181818",
"7  c #191919",
"8  c gray10",
"9  c #1B1B1B",
"0  c gray11",
"q  c #1D1D1D",
"w  c #1E1E1E",
"e  c gray12",
"r  c #202020",
"t  c gray13",
"y  c #222222",
"u  c #232323",
"i  c gray14",
"p  c #252525",
"a  c gray15",
"s  c #272727",
"d  c #282828",
"f  c gray16",
"g  c #2A2A2A",
"h  c gray17",
"j  c #2C2C2C",
"k  c #2D2D2D",
"l  c gray18",
"z  c #2F2F2F",
"x  c gray19",
"c  c #313131",
"v  c #323232",
"b  c gray20",
"n  c #343434",
"m  c #353535",
"M  c gray21",
"N  c #373737",
"B  c gray22",
"V  c #393939",
"C  c #3A3A3A",
"Z  c gray23",
"A  c #3C3C3C",
"S  c gray24",
"D  c #3E3E3E",
"F  c #3F3F3F",
"G  c gray25",
"H  c #414141",
"J  c gray26",
"K  c #434343",
"L  c #444444",
"P  c gray27",
"I  c #464646",
"U  c gray28",
"Y  c #484848",
"T  c #494949",
"R  c gray29",
"E  c #4B4B4B",
"W  c #4C4C4C",
"Q  c gray30",
"!  c #4E4E4E",
"~  c gray31",
"^  c #505050",
"/  c #515151",
"(  c gray32",
")  c #535353",
"_  c gray33",
"`  c #555555",
"'  c #565656",
"]  c gray34",
"[  c #585858",
"{  c gray35",
"}  c #5A5A5A",
"|  c #5B5B5B",
" . c gray36",
".. c #5D5D5D",
"X. c gray37",
"o. c #5F5F5F",
"O. c #606060",
"+. c #626262",
"@. c gray39",
"#. c #646464",
"$. c #656565",
"%. c gray40",
"&. c #676767",
"*. c #686868",
"=. c DimGray",
"-. c #6A6A6A",
";. c gray42",
":. c #6C6C6C",
">. c gray43",
",. c gray44",
"<. c #747474",
"1. c #797979",
/* pixels */
"O t 9 * > 3 ; 3 > 9 3 3 0 9 9 t ! i t g i g g g g i i g j i i j g M g g i 0 t t 0 0 3 t 9 i > O O O * * . O * O O O O . ",
"O t 0 * ; ; * > 3 9 9 9 0 0 0 i ! g i g i g i i g i i g i t i j t j i i i t i t t i 9 t 9 t ; O O O O O . . . . . . . . ",
"0 M M i t t t g t i i t g g g x ! j j j j j g x j g g g g t g x g M j x x j x g i g t i t g 0 9 3 > > > 3 3 > ; O O O O ",
"M T T F K K K T I T I K T T T ! [ I T ! ! ! ! [ ! T T T T I T ) K T I T I K T B K I K K K I K K F B F F T I K F M M M M ",
". * * O * ; ; > 9 0 9 > 3 9 3 9 9 3 0 0 9 0 t B i t 0 i g g i i g j j j i g j 9 3 3 3 > > > > ; > ; > ; i 9 > > * * * O ",
"* * * * ; > > ; 0 t 9 ; > 3 3 3 3 9 i 0 0 0 t K i t t i j j g i g g i g t g x 9 9 9 0 > 9 3 9 3 > > 3 ; j 3 ; ; O O O . ",
"* O O * * * ; * t i 0 > 3 9 9 9 9 0 t 0 0 0 0 F t t 0 0 t i i t g i i g t g M 9 9 3 9 > 0 9 0 3 ; ; 3 * j > * ; * * * * ",
"0 9 t i t t i i B F M g j M x x j x x g x x j T B M M x j x M M M j j x g x F 0 g i i 0 g t i 0 9 0 i 9 F t 9 0 3 3 3 3 ",
"x K B j B B x B F B M T M ! I ' *.I I ! I I K K K B K F B j  .x B K B F B K x F F B K K M @.M F B F B I M K B M K F K T ",
"* 0 3 O ; > * > > ; * 9 ; 9 3 t K 9 3 0 0 0 9 9 0 9 0 3 9 > K 0 t i t g t j t g i 0 i i t T 0 0 3 9 > 3 * > ; * O O * 3 ",
"O 0 9 O * ; ; ; > > > 3 > 3 3 9 I t 9 0 t t 0 0 0 9 0 > > 3 I i 0 t 0 t 0 i 0 t i 9 0 0 0 K 3 > > 3 ; ; . * O O O . * 3 ",
"* 0 0 ; > 9 9 3 ; 3 > > 3 > 3 > F 0 3 9 9 9 3 0 0 0 0 > > 9 F i i g i g t t i t g t i i i K 0 9 3 9 > > ; ; * ; * O * 3 ",
"x K K M B T I F B T F F K B K F ) K F F K F B ! K K T F F I [ I K I K K F B T B K F I K K ) B B x M M x B x j j j g i j ",
"; > > ; 3 t t 3 0 B t 0 t 0 t 0 i 0 t t i t t K 9 0 t t t i g i g g i g i t F i i i j g i j t i t g g i B g 0 t i t 0 9 ",
"O O * ; ; 3 3 > 3 M ; > ; > > > 3 > 3 3 9 3 9 F 9 3 9 0 9 0 0 t 9 9 3 9 9 3 B 0 9 9 0 9 9 9 9 9 3 9 9 3 x 0 * * O O O . ",
"O . * > ; ; > > 9 F > 3 * > > > 3 > > ; 3 > 3 F t 3 3 9 3 3 > t 3 3 3 3 3 > B 0 3 3 9 3 3 9 9 9 3 9 3 > x 9 O . . . O O ",
". ; * > > > 0 9 9 F 3 3 > ; 3 9 9 > 3 3 3 3 0 K t > 9 0 9 0 9 t 9 0 9 0 9 3 B 9 9 9 3 9 9 > t j 0 i 9 3 g t * * O O O O ",
"I ! ' T I K I I K [ T ! ) ! ) !  .! ) ' ' ) !  .) T ! ! ! ) ! [ ) ) ! T T K [ K I I K I I ! T T I ! T T ' ) I I I I I K ",
"; 9 M > ; ; > 3 3 3 9 9 0 9 9 3 x > > 0 0 0 3 > 9 0 t 9 t t 0 B g i g 0 t 9 t 9 0 0 9 9 9 B 9 > * ; * * * * O * * * * O ",
"O ; B * * * ; > 0 ; 9 ; 3 ; > ; F > ; 3 3 t 0 > 9 t t 9 i t t I 0 9 t > 0 3 > 3 3 3 3 3 > K > O * O * * . . O O O O O O ",
"* ; B * * O * ; 9 * 3 * > * > > M ; ; > ; 9 9 > > 9 0 3 0 0 0 K i t i 9 t 9 > 9 9 0 0 9 > K 3 > ; * ; > * * > ; . . O * ",
"t g I t i i i g g g g i g i i i F t i i 0 t t t g g j g x x j T g i g t g t g i i i i t 9 B t t 3 3 > 3 9 9 > ; 3 3 9 9 ",
"M F I F K I T I I [ I I I F K F ! I T I I I I ) ) I ! T T ! T ' T T T T ! T @.! ! ! T T I ! I I ! ! I T  .[ K B B B B B ",
"O * O * ; > 3 ; > M > 3 3 > 3 9 > > 3 > 3 9 0 x x t i i t i 0 i t i t i 0 9 F 9 0 0 3 0 0 > 3 3 > 3 * 3 M x > * * * O . ",
". * * ; * ; > > > B ; t 9 0 3 3 3 ; ; 3 3 > 0 x j 3 9 t 0 t 0 9 9 9 3 9 0 0 F > 3 3 > 9 9 > 3 3 > 3 * > x j ; O * O . . ",
". ; ; * * ; 3 > 9 F 3 t 3 9 > 3 > * ; 9 3 > 9 j x 3 3 9 3 0 0 0 t t 0 0 t 0 B 3 3 3 3 3 9 3 3 3 > > . ; x x > O * * O O ",
"M F F j g x x g g T g M j x x B K B B K K B K ) ' F K K K T I T I I K K K F ' B x M M M M K B x M M g x ! ! B x x x j j ",
"B I ! j g g g t g K x B M B K T I M j x M x M F F x B B B F F T B F B B M B T M F K F F K [ I M x B B B K B M B B M x x ",
". > g O O O * O ; 9 > 3 ; > 3 0 B t ; ; > > > 3 > > 9 3 3 9 t F 9 0 9 0 9 0 i 0 3 3 > > 3 B 0 * * > > > ; ; ; > ; * * * ",
". * j ; > ; > > * ; ; ; O * * ; M 0 * O * ; ; > ; ; > * * ; 0 F > 3 > > ; 9 3 3 > > ; ; > B 9 * > ; * ; > > ; * O O O O ",
"O . g * > ; ; > ; * > > > > > > j t 3 3 3 > 3 9 3 3 3 ; ; > 3 B 0 t 9 9 3 t 9 0 > > > 3 > F 9 9 3 ; * ; ; > ; O * O * * ",
"B j ) x I K F K ) T ' ' ) ! ! T ' ) ! ! ! I T ) T ! ! I T I F [ K I F K K ! K T K K I T F &.T ) ) ! ! ! I I I K T T T T ",
"O * * 3 3 ; > 3 t M ; ; 9 ; 3 3 0 3 > ; > > 3 B ; 3 3 > 9 0 9 0 9 > 9 ; > M 9 0 0 9 > 3 0 9 t 0 ; t 3 0 K t 0 t 3 0 t 9 ",
"; ; * > > * * ; 9 j ; ; 0 > 9 3 0 9 3 > > ; > B ; 3 > > 9 9 9 9 3 > 3 > > x 9 9 9 9 3 3 > ; > > > > ; > K 3 3 3 9 t i t ",
"; * ; ; > > > ; i x ; O ; * 3 9 0 3 3 > > ; 3 B * > ; ; > 3 > 3 9 3 9 3 3 x 0 0 9 0 9 3 ; ; ; > 9 > 3 3 T 3 9 9 9 0 0 0 ",
"t 0 g 9 t i i t B F 0 > 3 3 t i g 0 0 0 t t i K 0 t 0 0 i i t i t t t t 0 x t t 0 t t 0 3 t 9 9 0 9 0 0 K t 0 t i i g g ",
") ' &.I K K I K K T K I T T T T &.T I T ! ! ! [ ' ' ) ) ' ' '  .) ) ! ! T [ ! ! T T T ! T @.! T ! ' ) ) ' ' T ) ) ! )  .",
"3 t B O . . . . . . . O O ; > ; I t 9 0 0 0 3 9 t t 9 9 0 t i j 9 0 3 9 3 0 9 3 9 3 > 3 9 F 9 > * 3 > * . * . . * * ; t ",
"> 0 F O . . O . * O O . . * > > ! g t i t t 0 9 t 0 > > 9 0 i x * 3 ; 9 > 3 > ; ; * * ; ; M ; O 3 > 3 ; O ; . O . . O 0 ",
"> t I O . * * O * O ; * O > > > K 0 0 t 0 t 0 0 t 9 ; ; 3 9 i M * 9 3 t 0 0 9 3 ; ; ; > ; F > * 3 O > O ; * . O O . * i ",
"! ! *.' [ [ ! ) I T I I T ! ! T [ ) I K T T I ! ) I I K K T T ) F K M T T F T T I I B F I I K x F x x B M x j j x g j B ",
"9 > 0 9 g j t 0 I ) M x g j j j j M B F B x M T B g x x x M x x x B j M M M ' B x g t 0 t i i 0 i 0 0 i M g t 9 0 9 9 0 ",
"3 > 3 0 9 9 9 t 9 B ; ; ; > 0 t 3 3 9 t t 9 0 x M 9 9 9 3 0 t 0 3 0 9 3 3 t [ 0 9 3 ; ; ; ; * ; ; O * ; x t ; O . . . . ",
"3 > ; 3 ; * ; 9 9 I ; ; ; ; 9 0 0 3 > 3 0 3 0 M B 9 3 > * 3 3 3 ; > 3 ; ; 9  .3 > ; > > ; * O ; * O * O x 3 O . . . . . ",
"t > ; > 9 0 3 9 9 T 9 9 9 > 9 9 3 9 0 0 9 > i I j 9 0 t 9 9 > > 9 3 9 3 3 9 ) > 3 > 9 3 > 3 > 9 > > 3 * j > O . O . . . ",
"' ) *.! ' [ ' [ ! >.' [ &.' @. .*.*.&.&.&.@.&.1.>.@.&.&.&.@. .,.@. .@.[  .[ <.) &.[ @.' [ *. .&. . .@.' *.' ) ! ! I I ! ",
". ; ! * . O O > > 9 3 ; 0 * 3 ; M x t 0 i i 9 9 0 9 3 ; > > 3 B 3 0 9 ; 3 3 > ; > * 3 O ; t ; ; * * ; O * . O . * . * t ",
". * ' . . * O * 9 ; 9 * t * 9 3 x x g 9 9 9 9 0 > 0 9 > 9 > ; F ; 0 3 . > 9 . > * O 9 ; 3 g ; . O O O * . O * O O . * j ",
". ; T . . O > 3 * O t 0 > 9 3 > g B > 3 t 9 g 9 9 9 3 > 9 * ; I > > 3 > ; ; * > > * * ; * x O . . * . . . O * . . . ; M ",
"x j ' x B x g j g x j g g x j j K ! M B I B K F B B B M B j g ! g g j g i t g 0 j i t i t B 3 > ; 3 > > t 3 9 3 9 3 t F ",
"g t j j x M M K ) >.F F I ! I I K I K K ! T T  .T I T I I T I ) ) T T K I I &.I K I I T K K F F F K F K  .B M B B M B F ",
"O ; O O . * ; 3 x [ * ; 3 9 ; ; ; * > > 3 3 9 K t ; ; * . * O O > * * . * ; T i ; ; ; > > O ; ; ; ; ; 3 F * . O O * * * ",
". * O * . ; * > F &.; ; > > ; ; ; O > ; ; ; ; K i . O * O * * * O . O . . * T j t 9 ; > 9 ; * . . . O > F * . O . . . . ",
"O . O O ; 3 > 0 B ) ; ; ; * > 3 3 > 3 3 9 3 3 K 0 . O * O O . . O O ; * * * M t 3 3 3 3 * * . . O O O > x * . O * O . . ",
"[ ! *.K T I I ! ' &.! ' ! K ) ! [ ! K K ! T I  . .! ! I K I K K K K T I I I ' ! F I ! ! B ! B I I T K I ) F F F K B x M ",
"O 3 ' * > > ; O . ; 9 j 0 ; 0 3 ! M > ; 9 > ; 9 3 3 9 > 0 F T ! 9 > 3 3 3 0 9 0 i 0 9 0 0 I 9 3 9 0 > 3 > > 9 3 3 > 9 g ",
". * *.. . . . * . * * ; 3 3 ; * ! g * O * O O O * . . . ; . . K . . . . * . ; O * . O . . ' O . O . . . . . . . . . * t ",
". * [ O O O . . O ; ; ; > > ; ; T i * O * * * ; O O O . O . ; ! O . O O * . * . O . O . . I ; O O . . O O . . . . . O 0 ",
"9 i ' i i i 0 0 ; 9 3 > 3 3 > 3 T x 9 3 > * * ; ; * > ; O O 3 F * O O O * . ; . O . O O * x > * * O O * * O . . O . * 0 ",
"j x F x x M M M B I I F F K K I ) I K T T T T ! ' T ' ) T ) ) ) ) ) ' ) [ ) @.! K I I I ! ' ! K I I I T T K F B M x M K "
};
